<svg viewBox="0 0 50 50" xmlns="http://www.w3.org/2000/svg" xmlns:xlink="http://www.w3.org/1999/xlink" version="1.1" class="jsx-2263963463 artboard-inner" style="width: 55px; height: 55px; max-height: 100%;" width="50"  height="50" ><g transform="translate(25 25) scale(1.4285714285714286)" id="lockup4-icon"><g fill="#FFFFFF"><g transform="translate(-17.5 -17.5) scale(0.3431372549019608)" id="container" fill="#FFFFFF"><g fill="#FFFFFF"><circle vector-effect="non-scaling-stroke" cx="51" cy="51" r="50" fill="#FFFFFF"></circle></g></g><g transform="translate(-9.07557856420696 -9.99998583320075) scale(0.1999998626709927)" id="icon" fill="#FFFFFF"><g fill="#232323"><path d="M91.348 87.895h-17.48a1.257 1.257 0 0 1-1.259-1.258V2.517H2.518v82.861h15.636V14.703l.003-.096v-.002c.01-.13.04-.255.086-.374l.001-.002h.001a1.22 1.22 0 0 1 .137-.253l.001-.002a1.268 1.268 0 0 1 .981-.531c.02 0 .043-.005.055 0h36.293c.698 0 1.259.563 1.259 1.259v71.937c0 .695-.561 1.258-1.259 1.258H37.565a1.257 1.257 0 0 1-1.259-1.258v-55.23L20.67 17.503v69.134c0 .695-.563 1.258-1.259 1.258H1.259A1.257 1.257 0 0 1 0 86.637V1.259C0 .563.563 0 1.259 0h72.586a1.278 1.278 0 0 1 1.038.514c.03.04.055.081.081.125l17.469 29.563c.115.192.175.413.175.639v55.796a1.26 1.26 0 0 1-1.26 1.258zm-16.222-2.517h14.963V31.186L75.126 5.863v79.515zm-36.302 0h15.631V15.959H22.722L38.401 29.9c.269.241.423.583.423.941v54.537z" fill="#232323"></path><path d="M55.713 32.1H37.565a1.258 1.258 0 1 1 0-2.517h18.148c.698 0 1.259.563 1.259 1.258 0 .696-.56 1.259-1.259 1.259zM19.412 100H1.259A1.258 1.258 0 0 1 0 98.742V86.637a1.258 1.258 0 1 1 2.518 0v10.846h15.636V86.637a1.258 1.258 0 1 1 2.517 0v12.104A1.26 1.26 0 0 1 19.412 100zM55.713 100H37.565a1.257 1.257 0 0 1-1.259-1.258V86.637a1.258 1.258 0 1 1 2.518 0v10.846h15.631V86.637a1.26 1.26 0 0 1 2.518 0v12.104a1.258 1.258 0 0 1-1.26 1.259zM91.348 100h-17.48a1.257 1.257 0 0 1-1.259-1.258V86.637a1.258 1.258 0 1 1 2.518 0v10.846H90.09V86.637a1.258 1.258 0 1 1 2.518 0v12.104a1.26 1.26 0 0 1-1.26 1.259z" fill="#232323"></path></g></g></g></g></svg>